<?xml version="1.0" encoding="UTF-8" standalone="no"?>
<!DOCTYPE svg PUBLIC "-//W3C//DTD SVG 1.1//EN" "http://www.w3.org/Graphics/SVG/1.1/DTD/svg11.dtd">
<svg width="100%" height="100%" viewBox="0 0 757 190" version="1.1" xmlns="http://www.w3.org/2000/svg" xmlns:xlink="http://www.w3.org/1999/xlink" xml:space="preserve" xmlns:serif="http://www.serif.com/" style="fill-rule:evenodd;clip-rule:evenodd;stroke-linejoin:round;stroke-miterlimit:2;">
    <g transform="matrix(1,0,0,1,-51.0735,-775.25)">
        <g transform="matrix(1,0,0,1,-109,431.5)">
            <g transform="matrix(1,0,0,1,109,-431.5)">
                <path d="M174.339,952.5L173.578,953.262C158.26,968.58 133.388,968.58 118.07,953.262L62.562,897.754C47.244,882.436 47.244,857.564 62.562,842.246L118.07,786.738C133.388,771.42 158.26,771.42 173.578,786.738L214.087,827.248C213.437,827.539 212.831,827.906 212.271,828.348C210.627,829.646 209.487,831.103 208.853,832.719L184.619,900.225C183.465,903.168 182.384,906.385 181.374,909.875C180.364,913.366 179.455,917.016 178.648,920.824C177.667,917.016 176.628,913.366 175.532,909.875C174.436,906.385 173.311,903.168 172.157,900.225L147.75,832.719C146.942,830.872 145.76,829.358 144.202,828.175C142.644,826.992 140.596,826.401 138.057,826.401L114.516,826.401L165.06,952.5L174.339,952.5ZM233.582,847.619L203.052,923.788L229.085,897.754C242.72,884.12 244.218,862.915 233.582,847.619Z" style="fill:rgb(228,13,242);"/>
            </g>
            <g transform="matrix(0.495611,-0.286141,0.371887,0.644127,66.8681,314.584)">
                <path d="M152,407L170.731,380.5L152,354L229,380.5L152,407Z" style="fill:rgb(228,13,242);"/>
            </g>
            <g transform="matrix(1.29897,0,0,0.92552,25.8866,-359.645)">
                <g transform="matrix(92.381,0,0,129.657,278,910.899)">
                    <path d="M0.724,-0.729L0.432,-0L0.279,-0L-0.013,-0.729L0.123,-0.729C0.138,-0.729 0.15,-0.725 0.159,-0.718C0.168,-0.711 0.174,-0.703 0.179,-0.692L0.32,-0.302C0.327,-0.285 0.333,-0.266 0.34,-0.246C0.346,-0.226 0.352,-0.205 0.358,-0.183C0.362,-0.205 0.367,-0.226 0.373,-0.246C0.379,-0.266 0.385,-0.285 0.392,-0.302L0.532,-0.692C0.536,-0.701 0.542,-0.71 0.552,-0.717C0.561,-0.725 0.573,-0.729 0.587,-0.729L0.724,-0.729Z" style="fill:rgb(228,13,242);fill-rule:nonzero;"/>
                </g>
                <g transform="matrix(92.381,0,0,129.657,344.283,910.899)">
                    <path d="M0.375,-0.322C0.375,-0.334 0.373,-0.346 0.37,-0.358C0.367,-0.369 0.362,-0.38 0.355,-0.389C0.348,-0.398 0.338,-0.405 0.327,-0.411C0.315,-0.417 0.301,-0.42 0.284,-0.42C0.255,-0.42 0.232,-0.411 0.215,-0.394C0.198,-0.377 0.187,-0.353 0.182,-0.322L0.375,-0.322ZM0.18,-0.232C0.185,-0.188 0.198,-0.157 0.22,-0.137C0.241,-0.118 0.268,-0.108 0.302,-0.108C0.32,-0.108 0.336,-0.11 0.348,-0.115C0.362,-0.119 0.373,-0.124 0.383,-0.129C0.393,-0.134 0.403,-0.139 0.411,-0.143C0.42,-0.148 0.429,-0.15 0.438,-0.15C0.45,-0.15 0.46,-0.146 0.466,-0.137L0.511,-0.081C0.495,-0.063 0.478,-0.048 0.459,-0.036C0.441,-0.025 0.422,-0.016 0.402,-0.009C0.383,-0.003 0.363,0.002 0.344,0.004C0.324,0.007 0.306,0.008 0.288,0.008C0.252,0.008 0.218,0.002 0.186,-0.01C0.154,-0.022 0.126,-0.039 0.102,-0.063C0.078,-0.086 0.06,-0.115 0.046,-0.15C0.032,-0.184 0.025,-0.225 0.025,-0.271C0.025,-0.305 0.031,-0.338 0.043,-0.369C0.055,-0.4 0.072,-0.427 0.094,-0.451C0.116,-0.474 0.143,-0.492 0.174,-0.506C0.206,-0.52 0.241,-0.527 0.281,-0.527C0.315,-0.527 0.347,-0.521 0.375,-0.51C0.404,-0.5 0.428,-0.484 0.449,-0.464C0.469,-0.444 0.485,-0.419 0.497,-0.389C0.508,-0.36 0.514,-0.326 0.514,-0.289C0.514,-0.277 0.514,-0.268 0.513,-0.261C0.511,-0.253 0.51,-0.247 0.507,-0.243C0.504,-0.239 0.501,-0.236 0.496,-0.234C0.492,-0.232 0.486,-0.232 0.479,-0.232L0.18,-0.232Z" style="fill:rgb(228,13,242);fill-rule:nonzero;"/>
                </g>
                <g transform="matrix(92.381,0,0,129.657,402.391,910.899)">
                    <path d="M0.434,-0.396C0.429,-0.39 0.424,-0.385 0.42,-0.382C0.416,-0.379 0.409,-0.377 0.402,-0.377C0.394,-0.377 0.387,-0.379 0.381,-0.383C0.375,-0.386 0.368,-0.39 0.36,-0.395C0.352,-0.399 0.343,-0.403 0.333,-0.407C0.323,-0.411 0.31,-0.412 0.295,-0.412C0.276,-0.412 0.259,-0.409 0.245,-0.402C0.231,-0.395 0.22,-0.385 0.211,-0.372C0.202,-0.359 0.195,-0.343 0.191,-0.324C0.187,-0.305 0.185,-0.284 0.185,-0.261C0.185,-0.211 0.194,-0.173 0.213,-0.146C0.232,-0.119 0.259,-0.106 0.293,-0.106C0.311,-0.106 0.325,-0.108 0.335,-0.113C0.346,-0.117 0.355,-0.122 0.362,-0.128C0.369,-0.133 0.376,-0.138 0.382,-0.143C0.388,-0.148 0.396,-0.15 0.406,-0.15C0.418,-0.15 0.427,-0.146 0.434,-0.137L0.478,-0.081C0.463,-0.063 0.446,-0.048 0.428,-0.036C0.41,-0.025 0.392,-0.016 0.374,-0.009C0.355,-0.003 0.337,0.002 0.318,0.004C0.299,0.007 0.281,0.008 0.264,0.008C0.232,0.008 0.202,0.002 0.173,-0.01C0.144,-0.022 0.119,-0.039 0.097,-0.062C0.075,-0.085 0.058,-0.113 0.045,-0.147C0.032,-0.18 0.025,-0.218 0.025,-0.261C0.025,-0.298 0.031,-0.333 0.042,-0.365C0.053,-0.398 0.07,-0.426 0.092,-0.45C0.114,-0.474 0.141,-0.492 0.173,-0.506C0.205,-0.52 0.242,-0.527 0.284,-0.527C0.325,-0.527 0.361,-0.52 0.392,-0.507C0.422,-0.494 0.45,-0.475 0.474,-0.45L0.434,-0.396Z" style="fill:rgb(228,13,242);fill-rule:nonzero;"/>
                </g>
                <g transform="matrix(92.381,0,0,129.657,455.649,910.899)">
                    <path d="M0.238,0.008C0.213,0.008 0.192,0.004 0.173,-0.003C0.154,-0.01 0.138,-0.02 0.125,-0.033C0.112,-0.046 0.103,-0.062 0.096,-0.081C0.089,-0.1 0.086,-0.121 0.086,-0.143L0.086,-0.411L0.042,-0.411C0.034,-0.411 0.027,-0.414 0.021,-0.419C0.016,-0.424 0.013,-0.432 0.013,-0.442L0.013,-0.502L0.096,-0.519L0.126,-0.645C0.13,-0.661 0.141,-0.669 0.16,-0.669L0.241,-0.669L0.241,-0.518L0.37,-0.518L0.37,-0.411L0.241,-0.411L0.241,-0.154C0.241,-0.142 0.244,-0.132 0.25,-0.124C0.256,-0.116 0.264,-0.113 0.275,-0.113C0.281,-0.113 0.285,-0.113 0.289,-0.114C0.293,-0.115 0.296,-0.117 0.299,-0.118C0.302,-0.12 0.305,-0.121 0.307,-0.122C0.31,-0.123 0.313,-0.124 0.316,-0.124C0.321,-0.124 0.324,-0.123 0.327,-0.121C0.33,-0.119 0.333,-0.115 0.336,-0.111L0.383,-0.037C0.363,-0.022 0.341,-0.011 0.316,-0.003C0.291,0.004 0.265,0.008 0.238,0.008Z" style="fill:rgb(228,13,242);fill-rule:nonzero;"/>
                </g>
                <g transform="matrix(92.381,0,0,129.657,498.975,910.899)">
                    <path d="M0.292,-0.527C0.331,-0.527 0.367,-0.52 0.399,-0.508C0.431,-0.496 0.459,-0.478 0.482,-0.455C0.505,-0.432 0.523,-0.404 0.536,-0.371C0.549,-0.338 0.556,-0.302 0.556,-0.261C0.556,-0.219 0.549,-0.182 0.536,-0.149C0.523,-0.116 0.505,-0.087 0.482,-0.064C0.459,-0.041 0.431,-0.023 0.399,-0.011C0.367,0.002 0.331,0.008 0.292,0.008C0.252,0.008 0.216,0.002 0.183,-0.011C0.151,-0.023 0.123,-0.041 0.099,-0.064C0.076,-0.087 0.058,-0.116 0.045,-0.149C0.032,-0.182 0.025,-0.219 0.025,-0.261C0.025,-0.302 0.032,-0.338 0.045,-0.371C0.058,-0.404 0.076,-0.432 0.099,-0.455C0.123,-0.478 0.151,-0.496 0.183,-0.508C0.216,-0.52 0.252,-0.527 0.292,-0.527ZM0.292,-0.107C0.327,-0.107 0.353,-0.12 0.37,-0.145C0.387,-0.17 0.396,-0.208 0.396,-0.26C0.396,-0.311 0.387,-0.349 0.37,-0.374C0.353,-0.399 0.327,-0.411 0.292,-0.411C0.255,-0.411 0.228,-0.399 0.211,-0.374C0.194,-0.349 0.186,-0.311 0.186,-0.26C0.186,-0.208 0.194,-0.17 0.211,-0.145C0.228,-0.12 0.255,-0.107 0.292,-0.107Z" style="fill:rgb(228,13,242);fill-rule:nonzero;"/>
                </g>
                <g transform="matrix(92.381,0,0,129.657,560.963,910.899)">
                    <path d="M0.198,-0.439C0.214,-0.467 0.232,-0.489 0.253,-0.504C0.274,-0.521 0.298,-0.529 0.325,-0.529C0.348,-0.529 0.367,-0.523 0.382,-0.512L0.372,-0.398C0.37,-0.391 0.367,-0.386 0.363,-0.383C0.359,-0.38 0.354,-0.379 0.347,-0.379C0.345,-0.379 0.341,-0.379 0.337,-0.38C0.333,-0.38 0.328,-0.38 0.324,-0.381C0.319,-0.381 0.314,-0.382 0.309,-0.382C0.304,-0.383 0.3,-0.383 0.296,-0.383C0.273,-0.383 0.255,-0.377 0.242,-0.365C0.228,-0.353 0.217,-0.336 0.207,-0.315L0.207,-0L0.053,-0L0.053,-0.519L0.145,-0.519C0.152,-0.519 0.159,-0.518 0.164,-0.517C0.169,-0.515 0.173,-0.513 0.177,-0.51C0.18,-0.507 0.183,-0.504 0.185,-0.499C0.187,-0.494 0.188,-0.489 0.19,-0.482L0.198,-0.439Z" style="fill:rgb(228,13,242);fill-rule:nonzero;"/>
                </g>
                <g transform="matrix(92.381,0,0,129.657,604.52,910.899)">
                    <path d="M0.207,-0.749L0.207,-0.329L0.231,-0.329C0.24,-0.329 0.248,-0.33 0.253,-0.333C0.258,-0.336 0.263,-0.341 0.268,-0.347L0.366,-0.494C0.372,-0.502 0.378,-0.508 0.386,-0.512C0.394,-0.516 0.404,-0.519 0.416,-0.519L0.558,-0.519L0.424,-0.334C0.411,-0.317 0.396,-0.304 0.379,-0.293C0.386,-0.287 0.393,-0.281 0.4,-0.273C0.406,-0.266 0.412,-0.257 0.418,-0.248L0.564,-0L0.424,-0C0.412,-0 0.402,-0.002 0.394,-0.006C0.385,-0.01 0.378,-0.016 0.373,-0.026L0.275,-0.21C0.27,-0.218 0.265,-0.223 0.26,-0.226C0.255,-0.228 0.248,-0.23 0.237,-0.23L0.207,-0.23L0.207,-0L0.053,-0L0.053,-0.749L0.207,-0.749Z" style="fill:rgb(228,13,242);fill-rule:nonzero;"/>
                </g>
                <g transform="matrix(92.381,0,0,129.657,664.43,910.899)">
                    <path d="M0.211,-0.519L0.211,-0L0.056,-0L0.056,-0.519L0.211,-0.519ZM0.227,-0.661C0.227,-0.648 0.225,-0.637 0.22,-0.626C0.215,-0.615 0.208,-0.605 0.199,-0.597C0.19,-0.589 0.18,-0.583 0.169,-0.578C0.157,-0.573 0.145,-0.571 0.132,-0.571C0.119,-0.571 0.108,-0.573 0.097,-0.578C0.086,-0.583 0.076,-0.589 0.067,-0.597C0.059,-0.605 0.052,-0.615 0.047,-0.626C0.042,-0.637 0.04,-0.648 0.04,-0.661C0.04,-0.673 0.042,-0.685 0.047,-0.696C0.052,-0.707 0.059,-0.717 0.067,-0.725C0.076,-0.733 0.086,-0.74 0.097,-0.745C0.108,-0.749 0.119,-0.751 0.132,-0.751C0.145,-0.751 0.157,-0.749 0.169,-0.745C0.18,-0.74 0.19,-0.733 0.199,-0.725C0.208,-0.717 0.215,-0.707 0.22,-0.696C0.225,-0.685 0.227,-0.673 0.227,-0.661Z" style="fill:rgb(228,13,242);fill-rule:nonzero;"/>
                </g>
            </g>
        </g>
    </g>
</svg>
